<?xml version="1.0" encoding="UTF-8" standalone="no"?>
<svg
   xmlns:dc="http://purl.org/dc/elements/1.1/"
   xmlns:cc="http://creativecommons.org/ns#"
   xmlns:rdf="http://www.w3.org/1999/02/22-rdf-syntax-ns#"
   xmlns:svg="http://www.w3.org/2000/svg"
   xmlns="http://www.w3.org/2000/svg"
   xmlns:sodipodi="http://sodipodi.sourceforge.net/DTD/sodipodi-0.dtd"
   xmlns:inkscape="http://www.inkscape.org/namespaces/inkscape"
   inkscape:version="1.0 (4035a4fb49, 2020-05-01)"
   height="100"
   width="100"
   sodipodi:docname="at.svg"
   id="svg4"
   version="1.1"
   viewBox="0 0 100 100">
  <metadata
     id="metadata10">
    <rdf:RDF>
      <cc:Work
         rdf:about="">
        <dc:format>image/svg+xml</dc:format>
        <dc:type
           rdf:resource="http://purl.org/dc/dcmitype/StillImage" />
        <dc:title></dc:title>
      </cc:Work>
    </rdf:RDF>

  <path
     style="stroke-width:0.171371"
     id="path2"
     d="M 50.000008,7.5 C 26.512074,7.5 7.500007,26.508296 7.500007,50.000001 7.500007,73.487934 26.508303,92.5 50.000008,92.5 c 8.252197,0 16.33885,-2.423185 23.204999,-6.893054 2.057309,-1.339264 2.5063,-4.162258 0.951452,-6.061733 l -1.744042,-2.130657 c -1.314587,-1.605917 -3.629466,-1.999385 -5.376422,-0.878961 -5.05373,3.241311 -10.984194,4.996663 -17.035987,4.996663 -17.386957,0 -31.532259,-14.145302 -31.532259,-31.532257 0,-17.386957 14.145302,-31.532259 31.532259,-31.532259 17.160917,0 31.532257,9.874223 31.532257,27.419355 0,6.646795 -3.614728,13.665464 -9.968649,14.34255 -2.973115,-0.0778 -2.897883,-2.203316 -2.309395,-5.145241 l 4.015736,-20.754739 c 0.49115,-2.537832 -1.453054,-4.894183 -4.037843,-4.894183 h -7.708437 a 2.3165928,2.3165928 0 0 0 -2.301855,2.055252 l -0.0017,0.01577 C 56.701455,28.438792 52.288481,27.7749 48.942806,27.7749 c -12.780847,0 -23.620233,10.665101 -23.620233,25.955847 0,11.191039 6.303881,18.143045 16.451613,18.143045 4.624274,0 9.831382,-2.679728 12.851281,-6.569164 1.631795,5.844436 6.959889,5.844264 12.117641,5.844264 18.66367,0 25.756885,-12.272217 25.756885,-25.261794 C 92.500007,22.521179 73.653143,7.5 50.000008,7.5 Z m -3.715323,52.170464 c -3.812833,0 -6.181351,-2.677329 -6.181351,-6.986966 0,-7.710493 5.274626,-12.463639 10.047479,-12.463639 3.820203,0 6.100978,2.611865 6.100978,6.986795 0,7.722147 -5.805191,12.46381 -9.967106,12.46381 z" />
</svg>
