<svg
   xmlns:dc="http://purl.org/dc/elements/1.1/"
   xmlns:cc="http://creativecommons.org/ns#"
   xmlns:rdf="http://www.w3.org/1999/02/22-rdf-syntax-ns#"
   xmlns:svg="http://www.w3.org/2000/svg"
   xmlns="http://www.w3.org/2000/svg"
   xmlns:sodipodi="http://sodipodi.sourceforge.net/DTD/sodipodi-0.dtd"
   xmlns:inkscape="http://www.inkscape.org/namespaces/inkscape"
   inkscape:version="1.0 (4035a4fb49, 2020-05-01)"
   height="100"
   width="100"
   sodipodi:docname="map-marker-alt.svg"
   id="svg4"
   version="1.1"
   viewBox="0 0 100 100">
  <path
     style="stroke-width:0.175781"
     id="path2"
     d="M 46.531485,93.184158 C 20.990828,56.15778 16.250008,52.357742 16.250008,38.749992 16.250008,20.110329 31.360337,5 50,5 c 18.639662,0 33.749992,15.110329 33.749992,33.749992 0,13.60775 -4.74082,17.407788 -30.281477,54.434166 -1.676074,2.421211 -5.261131,2.421034 -6.93703,0 z M 50,52.812488 c 7.76654,0 14.062496,-6.295956 14.062496,-14.062496 0,-7.76654 -6.295956,-14.062496 -14.062496,-14.062496 -7.76654,0 -14.062496,6.295956 -14.062496,14.062496 0,7.76654 6.295956,14.062496 14.062496,14.062496 z" />
</svg>
