<svg width="624" height="99" xmlns="http://www.w3.org/2000/svg" xmlns:xlink="http://www.w3.org/1999/xlink" overflow="hidden"><defs><clipPath id="clip0"><rect x="0" y="0" width="624" height="99"/></clipPath></defs><g clip-path="url(#clip0)"><path d="M1.92147 94.9759 1.92147 76.2487C12.5805 79.6035 22.0122 81.2809 30.2168 81.2809 41.5445 81.2809 47.2093 78.2866 47.2093 72.3024 47.2093 70.0715 46.3849 68.1967 44.7324 66.6787 43.0426 65.0685 38.7146 62.8364 31.7597 59.9766 19.2807 54.8454 11.1434 50.4695 7.35838 46.85 2.45258 42.0725 0 36.0478 0 28.7673 0 19.3915 3.57396 12.2455 10.7169 7.33472 17.7808 2.46691 26.9791 0.0354906 38.3261 0.0354906 44.578 0.0354906 53.6269 1.18613 65.4627 3.49053L65.4627 21.5054C56.656 17.9875 48.4814 16.2323 40.9287 16.2323 30.2934 16.2323 24.976 19.1525 24.976 25.0059 24.976 27.1939 26.047 28.9784 28.192 30.3619 29.9758 31.4814 34.891 33.8462 42.9268 37.4637 54.4973 42.6024 62.2 47.0692 66.038 50.8686 70.592 55.3752 72.8733 61.2069 72.8733 68.3548 72.8733 78.629 68.4046 86.4662 59.4735 91.8664 52.2378 96.2454 42.8552 98.4259 31.3313 98.4259 21.5994 98.4259 11.7941 97.2796 1.92147 94.9759L1.92147 94.9759Z" fill="#009999" fill-rule="evenodd" transform="scale(1.00218 1)"/><path d="M87.8317 1.68362 87.8317 1.68362 114.319 1.68362 114.319 96.5101 87.8317 96.5101Z" fill="#009999" fill-rule="evenodd" transform="scale(1.00218 1)"/><path d="M138.61 96.5101 138.61 1.68362 206.543 1.68362 206.543 18.8349 164.138 18.8349 164.138 40.2469 201.05 40.2469 201.05 55.8914 164.138 55.8914 164.138 78.3943 207.636 78.3943 207.636 96.5101 138.61 96.5101Z" fill="#009999" fill-rule="evenodd" transform="scale(1.00218 1)"/><path d="M224.927 96.5101 224.927 1.68362 259.269 1.68362 283.128 62.2735 307.586 1.68362 340.205 1.68362 340.205 96.5101 315.091 96.5101 315.091 29.3706 287.282 97.4727 270.863 97.4727 243.589 29.3706 243.589 96.5101 224.927 96.5101Z" fill="#009999" fill-rule="evenodd" transform="scale(1.00218 1)"/><path d="M364.501 96.5101 364.501 1.68362 432.433 1.68362 432.433 18.8349 390.032 18.8349 390.032 40.2469 426.942 40.2469 426.942 55.8914 390.032 55.8914 390.032 78.3943 433.533 78.3943 433.533 96.5101 364.501 96.5101Z" fill="#009999" fill-rule="evenodd" transform="scale(1.00218 1)"/><path d="M450.961 96.5101 450.961 1.68362 481.66 1.68362 514.229 65.1625 514.229 1.68362 532.886 1.68362 532.886 96.5101 503.059 96.5101 469.625 32.1769 469.625 96.5101 450.961 96.5101Z" fill="#009999" fill-rule="evenodd" transform="scale(1.00218 1)"/><path d="M551.69 94.9759 551.69 76.2487C562.258 79.6035 571.689 81.2809 579.99 81.2809 591.319 81.2809 596.977 78.2866 596.977 72.3024 596.977 70.0715 596.174 68.1967 594.577 66.6787 592.879 65.0685 588.533 62.8364 581.536 59.9766 569.094 54.8877 560.949 50.5137 557.129 46.85 552.226 42.1148 549.778 36.0678 549.778 28.7025 549.778 19.3673 553.343 12.2449 560.493 7.33409 567.546 2.46628 576.755 0.0348679 588.104 0.0348679 594.484 0.0348679 602.751 1.04791 612.891 3.08332L615.233 3.48991 615.233 21.5048C606.425 17.9869 598.227 16.2316 590.633 16.2316 580.039 16.2316 574.754 19.1518 574.754 25.0053 574.754 27.1932 575.82 28.9777 577.959 30.3612 579.659 31.4378 584.594 33.8038 592.764 37.4631 604.247 42.6018 611.933 47.0686 615.805 50.8679 620.366 55.3746 622.641 61.2063 622.641 68.3542 622.641 78.6284 618.199 86.4656 609.313 91.8658 602.035 96.2448 592.629 98.4253 581.107 98.4253 571.365 98.4259 561.555 97.2796 551.69 94.9759L551.69 94.9759Z" fill="#009999" fill-rule="evenodd" transform="scale(1.00218 1)"/></g></svg>