<svg
   xmlns="http://www.w3.org/2000/svg"
   viewBox="0 0 100 100"
   version="1.1"
   id="close-icon"
   width="100"
   height="100">
  <path
     d="m 66.545899,50 24.81637,-24.816371 c 3.045319,-3.045319 3.045319,-7.982802 0,-11.0306 l -5.5153,-5.5152999 c -3.045318,-3.045319 -7.982801,-3.045319 -11.0306,0 L 50,33.4541 25.18363,8.6377291 c -3.045319,-3.045319 -7.982802,-3.045319 -11.0306,0 L 8.6377303,14.153029 c -3.0453185,3.045318 -3.0453185,7.982801 0,11.0306 L 33.4541,50 8.6377303,74.81637 c -3.0453185,3.04532 -3.0453185,7.9828 0,11.0306 l 5.5152997,5.5153 c 3.045318,3.04532 7.985281,3.04532 11.0306,0 L 50,66.5459 74.816369,91.36227 c 3.045319,3.04532 7.985282,3.04532 11.0306,0 l 5.5153,-5.5153 c 3.045319,-3.04532 3.045319,-7.9828 0,-11.0306 z"
     id="path2"
     style="stroke-width:0.24799;fill:#b21212" />
</svg>
